PathFileType	4	(X/Y/Z)	/Users/niels/Desktop/University/Third Semester/Perception and Action/Exam/Gymnastics Motion Tracking/Code for Gym Tracking/Analyzed Data/Webcam_Backflip/id2000_2_trajectory_Sports2D/id2000_2_trajectory_Sports2D_px_person00.trc
DataRate	CameraRate	NumFrames	NumMarkers	Units	OrigDataRate	OrigDataStartFrame	OrigNumFrames
29.8876404494382	29.8876404494382	11	22	m	29.8876404494382	66	267
Frame#	Time	Hip			RHip			RKnee			RAnkle			RBigToe			RSmallToe			RHeel			LHip			LKnee			LAnkle			LBigToe			LSmallToe			LHeel			Neck			Head			Nose			RShoulder			RElbow			RWrist			LShoulder			LElbow			LWrist		
		X1	Y1	Z1	X2	Y2	Z2	X3	Y3	Z3	X4	Y4	Z4	X5	Y5	Z5	X6	Y6	Z6	X7	Y7	Z7	X8	Y8	Z8	X9	Y9	Z9	X10	Y10	Z10	X11	Y11	Z11	X12	Y12	Z12	X13	Y13	Z13	X14	Y14	Z14	X15	Y15	Z15	X16	Y16	Z16	X17	Y17	Z17	X18	Y18	Z18	X19	Y19	Z19	X20	Y20	Z20	X21	Y21	Z21	X22	Y22	Z22
66	2.2082706766917295	1.0454991045234934	-0.4633833278847145	0.0	1.0450846993295255	-0.4733522308027211	0.0	1.0653475535942059	-0.8344858322757771	0.0	1.0239186520671546	-1.07503543484446	0.0	1.1822616965745834	-1.097518460763554	0.0	1.1728602793940028	-1.1201419352383146	0.0	0.9803665190645356	-1.089837401959684	0.0	1.06034761196558	-0.4731882450669946	0.0	1.1109608669507824	-0.815733205640402	0.0	1.0945434320657643	-1.0395495686250267	0.0	1.201333765474391	-1.0714486134839016	0.0	1.1826818492853226	-1.0591854648528198	0.0	1.0571283275260714	-1.0641650913718017	0.0	1.060072056380065	-0.04164910318403028	0.0	1.1695803063126298	-0.0314440077266065	0.0	1.1674879833431786	-0.0012457630158708452	0.0	1.0543534606134513	-0.02423785494023956	0.0	1.0764767256609316	-0.27392221863050265	0.0	1.180542081643811	-0.5067924733946396	0.0	1.0517012301098219	-0.03866723293432182	0.0	1.0082907703849475	-0.30215919609431424	0.0	1.1050422161764166	-0.4715467221626572	0.0
67	2.2417293233082707	1.0442059022398977	-0.46377935017192773	0.0	1.045122522032547	-0.47441180650871645	0.0	1.065262480389467	-0.8371206157117972	0.0	1.0241386618968797	-1.0751805528459135	0.0	1.1831131630767782	-1.0970879855324145	0.0	1.173583316737694	-1.119071302182606	0.0	0.981085680937769	-1.0894296291855476	0.0	1.056760200684188	-0.4741738311804297	0.0	1.1099815996046871	-0.8176720648015909	0.0	1.094410796655985	-1.0399835223406468	0.0	1.2012543160663016	-1.0705493883560435	0.0	1.1822529305777623	-1.0589000854583692	0.0	1.0554020907073445	-1.0641780399478202	0.0	1.059700823474341	-0.03994722324953144	0.0	1.1680486381358062	-0.03186324966616165	0.0	1.1668154379241424	-0.001591382492517252	0.0	1.0548956559586673	-0.024222160652784996	0.0	1.0760495739887457	-0.2737498856968468	0.0	1.1803699990076943	-0.5066694105263129	0.0	1.049248441927241	-0.03862895383106086	0.0	1.0052093792123182	-0.3030968683493704	0.0	1.0960842441356542	-0.47088317314730266	0.0
68	2.2751879699248123	1.0429129058329136	-0.46409496649588133	0.0	1.0449289574245393	-0.4748083637379497	0.0	1.0659243354381578	-0.8396530339772413	0.0	1.0244713960431633	-1.07559739988006	0.0	1.1842604571001276	-1.0973173088729937	0.0	1.174921799916569	-1.1177030251319364	0.0	0.9813017615210712	-1.0891450564766934	0.0	1.053746152543377	-0.4748504390642718	0.0	1.1087404378247923	-0.8194364370908698	0.0	1.0935133174579672	-1.0408475142488824	0.0	1.201295992892842	-1.0696471161561956	0.0	1.182026819682774	-1.0586953559549526	0.0	1.0537122965432755	-1.064408923887116	0.0	1.0588993183546958	-0.039732971960086634	0.0	1.167370919333998	-0.03338076841090128	0.0	1.1661576398320916	-0.0020603069187052803	0.0	1.0553302254475814	-0.023898991309306627	0.0	1.075206507724705	-0.2735010482512381	0.0	1.1801454407245475	-0.5064620436358817	0.0	1.046411764407714	-0.03881959686353514	0.0	1.0012766616878093	-0.3043042494032899	0.0	1.0834969615457333	-0.4691643118084243	0.0
69	2.3086466165413535	1.0418030452387044	-0.46465407115487833	0.0	1.0448204686918756	-0.4747855362239224	0.0	1.0683721746057657	-0.8420601555941638	0.0	1.0258393655644986	-1.0761409322053335	0.0	1.1861967567339708	-1.0976215284034772	0.0	1.1770151427444024	-1.1160576266919977	0.0	0.9815547366803732	-1.088914266840655	0.0	1.0504911191996686	-0.4754947145983211	0.0	1.1063002407725866	-0.8211022806400493	0.0	1.0905872132439574	-1.0424629982454472	0.0	1.2005034194361262	-1.068855675767406	0.0	1.1814962552391437	-1.0589090715223473	0.0	1.0506447424392096	-1.0651437412321483	0.0	1.0574081275842282	-0.04149377271201325	0.0	1.168079034953884	-0.03574487388369365	0.0	1.1655182882587316	-0.002429973347577142	0.0	1.055455943085491	-0.023543075430330403	0.0	1.0737908412387642	-0.273217946628194	0.0	1.179868255734489	-0.5061369705505898	0.0	1.0429591265030402	-0.03958073337659014	0.0	0.9976485483623695	-0.3059580348230882	0.0	1.0712400421043151	-0.46845952952860304	0.0
70	2.3421052631578947	1.0409297996977172	-0.4657514720518426	0.0	1.0451862221051302	-0.47477865708524536	0.0	1.0740845921313769	-0.8443285284608134	0.0	1.0295250449424498	-1.0766303092225613	0.0	1.1893895145859623	-1.0973394735565465	0.0	1.1798148235707921	-1.1142329817813903	0.0	0.9827297481286523	-1.0885903737035627	0.0	1.045622036708264	-0.4764465623488866	0.0	1.1012624432386278	-0.8228789859201904	0.0	1.0840937949591987	-1.0450910746008655	0.0	1.1979239184177544	-1.06840794766275	0.0	1.1800403566060227	-1.0600530275239155	0.0	1.0443042659429564	-1.066636592029886	0.0	1.055043489753815	-0.04503294182640176	0.0	1.1704561485329033	-0.03842936322350817	0.0	1.1647548315444758	-0.002405841785830776	0.0	1.0550208133213688	-0.023517703738770372	0.0	1.0716388510549275	-0.27296910940226754	0.0	1.17950364062177	-0.5056768711490492	0.0	1.0383282597589498	-0.04111446950743	0.0	0.9956603505242311	-0.3081039695227369	0.0	1.065333733332473	-0.47106084955580424	0.0
71	2.3755639097744363	1.0400895517325808	-0.46740278822752646	0.0	1.046211997812516	-0.47522595372749893	0.0	1.0846777500475728	-0.8460588907684565	0.0	1.0365263691282083	-1.0769755969820765	0.0	1.1941896577225566	-1.09626370617406	0.0	1.1829763351411993	-1.112449749704094	0.0	0.9857299612266964	-1.0880361204027427	0.0	1.0381043959488065	-0.4779269343147392	0.0	1.09261102744386	-0.8248246258971964	0.0	1.072958527492872	-1.0488016199713686	0.0	1.1932102274185947	-1.0688078190649646	0.0	1.1773069761745472	-1.0627340313650013	0.0	1.0336879543855404	-1.0689617528056021	0.0	1.052004894529293	-0.04901248097202559	0.0	1.1741576687805986	-0.04082175302126058	0.0	1.1637349230677745	-0.0019086773607137329	0.0	1.053808468566644	-0.024082661001983974	0.0	1.0686414115806595	-0.2727630774068872	0.0	1.1789498128175164	-0.505043596272462	0.0	1.0322559605126813	-0.043224960369377306	0.0	0.996016302045063	-0.3103476023565359	0.0	1.0690656893084742	-0.4773126486576781	0.0
72	2.4090225563909775	1.038944706257883	-0.46931209049081063	0.0	1.0476352296390208	-0.4763044933306874	0.0	1.1013184365500344	-0.8461961844372883	0.0	1.0468987464302404	-1.0771660393924543	0.0	1.2004533718037949	-1.0947346077776097	0.0	1.185897808483441	-1.1110243100241803	0.0	0.9913054283260216	-1.0872514675511085	0.0	1.0282889461892986	-0.47986989440173533	0.0	1.0809241333866948	-0.8267355814935554	0.0	1.0577097395145643	-1.0534133213095593	0.0	1.1868603597443903	-1.0708005143419508	0.0	1.1733392342648532	-1.0674923247917405	0.0	1.0196699198823151	-1.0720260479370598	0.0	1.0489239027181474	-0.051539003307043904	0.0	1.1783247080137642	-0.042591821086240475	0.0	1.1624784876818088	-0.0012041218822735138	0.0	1.051701250956262	-0.02523629961392861	0.0	1.064784463678048	-0.27249827365942	0.0	1.1780076176121568	-0.5041121943543608	0.0	1.0253667248955907	-0.0453761517657012	0.0	0.9981995454248631	-0.31188445245088986	0.0	1.0796934975488912	-0.4850688764969993	0.0
73	2.4424812030075187	1.0373784536066744	-0.47108636317842456	0.0	1.0487940243060494	-0.4779263388220112	0.0	1.124268392065881	-0.8433538738503236	0.0	1.0597485759100878	-1.0772314077138192	0.0	1.2073569385274414	-1.0933758322444973	0.0	1.1878809482547725	-1.1102637662369572	0.0	1.0000811524610314	-1.0863873818105585	0.0	1.0183986591313177	-0.4820331136425427	0.0	1.0685995806187591	-0.8284706157262534	0.0	1.0407819085271786	-1.0585957352201771	0.0	1.179945511740497	-1.0753584694434581	0.0	1.1684260648997933	-1.074792953091525	0.0	1.0045984126230219	-1.0756063244694511	0.0	1.0466694627605642	-0.051260105238223254	0.0	1.1819993846495556	-0.04390179395775047	0.0	1.1611838276428978	-0.0008124419261868002	0.0	1.0486633509364438	-0.026696652617870877	0.0	1.0601507776955064	-0.2720536935363526	0.0	1.176389347066462	-0.5027002329248524	0.0	1.019322538956264	-0.04698533603985462	0.0	1.0011330884879197	-0.3119784613008221	0.0	1.0922812553879282	-0.4915331629913041	0.0
74	2.4759398496240603	1.0357721637326094	-0.4724634253462312	0.0	1.049079651747019	-0.47997140298598806	0.0	1.1528647415871724	-0.8365728448091134	0.0	1.0740098714985031	-1.077197920599342	0.0	1.2137801838849092	-1.0927530242943222	0.0	1.1883836630072928	-1.110283118741203	0.0	1.012664476097992	-1.0855542901878703	0.0	1.011405206335675	-0.48423684240489995	0.0	1.0583857475100906	-0.8304295018274034	0.0	1.0251766848132466	-1.0640008479951581	0.0	1.1733638962228587	-1.0836413513542011	0.0	1.1627853359897973	-1.0852373420621992	0.0	0.9909171088810894	-1.0793120111343109	0.0	1.0459832235386073	-0.0479827993538433	0.0	1.1845687242770884	-0.045038816033182216	0.0	1.1601055764126988	-0.0011942473037407995	0.0	1.044718609748203	-0.02811496241273015	0.0	1.0548499678575893	-0.27139042198826463	0.0	1.1738174290397925	-0.5007321707212335	0.0	1.0162175282067336	-0.04780806119684569	0.0	1.0042825901704393	-0.3104415250741712	0.0	1.1042371284218955	-0.4951592311245563	0.0
75	2.5093984962406015	1.0348223418905382	-0.47334877847113954	0.0	1.0484309119675461	-0.4822807630937577	0.0	1.185763109834599	-0.8254244789905261	0.0	1.0892319516896618	-1.076793431993607	0.0	1.2188742303910916	-1.0929641154822858	0.0	1.1874244095154418	-1.1107221140336714	0.0	1.029350864726224	-1.0844905030428678	0.0	1.0090463195253399	-0.486382717979552	0.0	1.0516742823898135	-0.8334520140697778	0.0	1.0128797397841345	-1.0691982039521393	0.0	1.167310457291611	-1.0963875184129817	0.0	1.1564352828338582	-1.0993017321184944	0.0	0.98022994402946	-1.0826328416809767	0.0	1.0469805286607512	-0.042748540187498116	0.0	1.185966393804262	-0.04601891987709377	0.0	1.1592477997911776	-0.0024108491656317844	0.0	1.040000541902042	-0.029320301834503987	0.0	1.048937251614157	-0.2705260375638792	0.0	1.1701400853620056	-0.4983877240183359	0.0	1.0173548816505693	-0.04814748723889909	0.0	1.0076286262969025	-0.30769996575106956	0.0	1.1147770886248243	-0.49590024099964336	0.0
76	2.5428571428571427	1.0349965236556138	-0.47368222559252454	0.0	1.0473887396242023	-0.4844238346606785	0.0	1.221327811514037	-0.8091622860203059	0.0	1.1055849769289736	-1.0749108634351288	0.0	1.2224732870381239	-1.09330087902439	0.0	1.186229849488278	-1.1105104721152614	0.0	1.0493283962655082	-1.0822324247641737	0.0	1.0109597029354924	-0.4883171616619249	0.0	1.0482378224404114	-0.8378221162169363	0.0	1.0045056894854156	-1.0735257347097287	0.0	1.1616783329483387	-1.1128258527817043	0.0	1.1495743072120752	-1.1163043527884742	0.0	0.973312521255135	-1.085137099161209	0.0	1.0489709145536514	-0.03731816609286027	0.0	1.186492080902338	-0.04671892198742281	0.0	1.1582263568247049	-0.004114974909593861	0.0	1.0347993872633638	-0.030287412341880742	0.0	1.0424152627936878	-0.2694434153323383	0.0	1.1653097416079516	-0.49600814753249295	0.0	1.022368166153879	-0.048548891855961264	0.0	1.0108589143077131	-0.30440875646018173	0.0	1.1229870743128996	-0.4944529195044862	0.0
